<?xml version="1.0" encoding="UTF-8" standalone="no"?>
<!-- Created with Inkscape (http://www.inkscape.org/) -->

<svg
   xmlns:dc="http://purl.org/dc/elements/1.1/"
   xmlns:cc="http://creativecommons.org/ns#"
   xmlns:rdf="http://www.w3.org/1999/02/22-rdf-syntax-ns#"
   xmlns:svg="http://www.w3.org/2000/svg"
   xmlns="http://www.w3.org/2000/svg"
   xmlns:sodipodi="http://sodipodi.sourceforge.net/DTD/sodipodi-0.dtd"
   xmlns:inkscape="http://www.inkscape.org/namespaces/inkscape"
   width="127.9082"
   height="99.691422"
   id="svg2"
   version="1.1"
   inkscape:version="0.48.4 r9939"
   sodipodi:docname="01.svg">
  <defs
     id="defs4" />
  <sodipodi:namedview
     id="base"
     pagecolor="#ffffff"
     bordercolor="#666666"
     borderopacity="1.0"
     inkscape:pageopacity="0.0"
     inkscape:pageshadow="2"
     inkscape:zoom="0.35"
     inkscape:cx="-374.14451"
     inkscape:cy="43.399996"
     inkscape:document-units="px"
     inkscape:current-layer="layer1"
     showgrid="false"
     inkscape:window-width="1327"
     inkscape:window-height="744"
     inkscape:window-x="39"
     inkscape:window-y="24"
     inkscape:window-maximized="1"
     fit-margin-top="0"
     fit-margin-left="0"
     fit-margin-right="0"
     fit-margin-bottom="0" />
  <metadata
     id="metadata7">
    <rdf:RDF>
      <cc:Work
         rdf:about="">
        <dc:format>image/svg+xml</dc:format>
        <dc:type
           rdf:resource="http://purl.org/dc/dcmitype/StillImage" />
        <dc:title />
      </cc:Work>
    </rdf:RDF>
  </metadata>
  <g
     inkscape:label="Layer 1"
     inkscape:groupmode="layer"
     id="layer1"
     transform="translate(-246.28737,-476.07076)">
    <g
       style="font-size:241.98309326px;font-style:normal;font-variant:normal;font-weight:normal;font-stretch:normal;line-height:125%;letter-spacing:0px;word-spacing:0px;fill:#e6fad6;fill-opacity:1;stroke:none;font-family:Videophreak;-inkscape-font-specification:Videophreak"
       id="text2985"
       transform="matrix(0.52953316,0,0,0.52953316,137.22302,254.23454)">
      <path
         d="m 367.24494,558.55215 c -0.48412,4.83969 -2.74263,10.8086 -6.77552,17.90675 -8.87286,15.48692 -21.37531,25.08557 -37.50738,28.79599 -5.64638,1.29056 -19.19742,1.93584 -40.65316,1.93587 -18.55209,-3e-5 -32.10313,-0.64531 -40.65316,-1.93587 -9.84067,-1.45192 -18.47139,-7.17884 -25.89219,-17.1808 -7.25949,-9.84064 -10.48593,-19.76193 -9.67933,-29.76392 l 7.74346,-90.25969 c 0.32264,-4.67822 2.58115,-10.72779 6.77553,-18.14874 6.45286,-11.61504 15.08359,-19.92311 25.89219,-24.92425 9.19531,-4.03289 21.13313,-6.04941 35.8135,-6.04958 l 8.71139,0 c -0.1614,1.7e-4 1.45181,0.0808 4.83966,0.24198 -9e-5,1.7e-4 0.96785,1.7e-4 2.9038,0 19.8425,1.7e-4 31.94165,0.40347 36.29746,1.20992 12.74431,2.09735 22.82693,8.06626 30.24789,17.90675 7.42065,9.84078 10.72775,19.68142 9.92131,29.52193 l -7.98545,90.74366 m -26.86012,0.96794 7.98544,-92.67953 c 0.32251,-4.03293 -1.936,-8.38862 -6.77552,-13.06709 -4.83979,-4.6782 -9.27615,-7.17869 -13.30907,-7.50147 -1.93599,-0.16118 -12.50257,-0.24184 -31.69979,-0.24198 -2.09727,1.4e-4 -5.16239,-0.0805 -9.19536,-0.24199 -4.03312,-0.16118 -7.09824,-0.24184 -9.19536,-0.24198 -12.42185,1.4e-4 -21.6172,2.50063 -27.58607,7.50147 -5.96895,4.8398 -9.51803,13.38986 -10.64725,25.65021 -0.32268,2.9039 -0.64532,5.96902 -0.96794,9.19536 -3e-5,3.54918 0.72592,6.45298 2.17785,8.71139 0.48394,0.8067 3.14575,1.61331 7.98544,2.41983 5.64623,0.96802 9.03399,1.69397 10.16329,2.17785 3.54904,1.6133 5.16226,4.27512 4.83967,7.98544 l -4.3557,50.0905 c -0.32269,4.35572 1.77449,8.79207 6.29156,13.30907 4.51696,4.35571 9.03397,6.8562 13.55105,7.50148 1.12919,0.16133 7.34008,0.24199 18.6327,0.24198 l 7.74346,0 c -0.48406,10e-6 1.61312,-0.0806 6.29156,-0.24198 -10e-5,10e-6 1.4518,10e-6 4.3557,0 3.87162,10e-6 8.71127,-2.50048 14.51898,-7.50148 5.80747,-5.00096 8.87259,-9.35665 9.19536,-13.06708"
         id="path3028"
         inkscape:connector-curvature="0"
         style="fill:#e6fad6;fill-opacity:1" />
      <path
         d="m 432.70515,597.9954 c -0.48401,5.00097 -4.75904,7.98542 -12.8251,8.95337 -1.29061,0.1613 -6.29159,0.24196 -15.00295,0.24199 -8.55008,-3e-5 -13.79304,-0.16135 -15.7289,-0.48397 -7.42081,-1.2906 -10.88923,-4.27505 -10.40528,-8.95338 l 7.74346,-88.56581 c 0.16132,-2.74239 1.4519,-4.83958 3.87173,-6.29156 1.77454,-1.12917 6.85618,-2.5004 15.24494,-4.11371 5.80757,-1.12917 8.95334,-4.03296 9.43734,-8.71139 l 5.56561,-61.46371 c 0.32261,-3.06496 2.09715,-5.48478 5.32363,-7.25949 2.58111,-1.45173 5.56556,-2.17768 8.95337,-2.17785 3.22639,1.7e-4 6.04952,0.72612 8.46941,2.17785 3.06506,1.77471 4.4363,4.11387 4.11371,7.01751 L 432.70515,597.9954"
         id="path3030"
         inkscape:connector-curvature="0"
         style="fill:#e6fad6;fill-opacity:1" />
    </g>
  </g>
</svg>
