<?xml version="1.0" encoding="UTF-8" standalone="no"?>
<!-- Created with Inkscape (http://www.inkscape.org/) -->

<svg
   xmlns:dc="http://purl.org/dc/elements/1.1/"
   xmlns:cc="http://creativecommons.org/ns#"
   xmlns:rdf="http://www.w3.org/1999/02/22-rdf-syntax-ns#"
   xmlns:svg="http://www.w3.org/2000/svg"
   xmlns="http://www.w3.org/2000/svg"
   xmlns:sodipodi="http://sodipodi.sourceforge.net/DTD/sodipodi-0.dtd"
   xmlns:inkscape="http://www.inkscape.org/namespaces/inkscape"
   width="560.20093"
   height="66.544899"
   id="svg2"
   version="1.1"
   inkscape:version="0.48.4 r9939"
   sodipodi:docname="somegames.svg">
  <defs
     id="defs4" />
  <sodipodi:namedview
     id="base"
     pagecolor="#ffffff"
     bordercolor="#666666"
     borderopacity="1.0"
     inkscape:pageopacity="0.0"
     inkscape:pageshadow="2"
     inkscape:zoom="1.0651123"
     inkscape:cx="294.44104"
     inkscape:cy="-44.726371"
     inkscape:document-units="px"
     inkscape:current-layer="layer1"
     showgrid="false"
     inkscape:window-width="1327"
     inkscape:window-height="744"
     inkscape:window-x="39"
     inkscape:window-y="24"
     inkscape:window-maximized="1"
     fit-margin-top="0"
     fit-margin-left="0"
     fit-margin-right="0"
     fit-margin-bottom="0" />
  <metadata
     id="metadata7">
    <rdf:RDF>
      <cc:Work
         rdf:about="">
        <dc:format>image/svg+xml</dc:format>
        <dc:type
           rdf:resource="http://purl.org/dc/dcmitype/StillImage" />
        <dc:title />
      </cc:Work>
    </rdf:RDF>
  </metadata>
  <g
     inkscape:label="Layer 1"
     inkscape:groupmode="layer"
     id="layer1"
     transform="translate(259.93554,-287.25156)">
    <g
       transform="matrix(2.1328496,0,0,2.1328496,732.68049,559.74445)"
       style="font-size:40px;font-style:normal;font-variant:normal;font-weight:normal;font-stretch:normal;line-height:125%;letter-spacing:0px;word-spacing:0px;fill:#e7fad6;fill-opacity:1;stroke:#56634b;font-family:Videophreak;-inkscape-font-specification:Videophreak;stroke-opacity:0.4977169"
       id="text2986">
      <path
         d="m -448.31429,-105.88001 c -0.72002,0.26666 -1.14669,0.39999 -1.28,0.4 l -14.04,0 c -0.50667,-1e-5 -0.88001,-0.25334 -1.12,-0.76 -0.21334,-0.42667 -0.29334,-0.90667 -0.24,-1.44 0.0533,-0.53334 0.22666,-1.01334 0.52,-1.44 0.34666,-0.53334 0.75999,-0.8 1.24,-0.8 l 9.28,0 c 0.69332,0 1.09332,-0.73333 1.2,-2.2 0.13332,-1.49333 -0.13335,-2.24 -0.8,-2.24 l -7.24,0 c -0.26668,0 -0.66668,-0.13333 -1.2,-0.4 -2.26667,-1.12 -3.4,-2.77333 -3.4,-4.96 0,-0.21332 0.0267,-0.65332 0.08,-1.32 0.13333,-1.73332 0.73333,-3.23999 1.8,-4.52 1.14666,-1.41332 2.54666,-2.11998 4.2,-2.12 l 13.44,0 c 1.25331,2e-5 1.81331,0.73335 1.68,2.2 -0.0534,0.50668 -0.22669,0.98668 -0.52,1.44 -0.34669,0.53335 -0.76002,0.80001 -1.24,0.8 l -13.76,0 c -0.64001,1e-5 -1.02668,0.73334 -1.16,2.2 -0.13334,1.49334 0.11999,2.24001 0.76,2.24 l 11.68,0 c 0.26664,1e-5 0.66664,0.13334 1.2,0.4 2.26664,1.12001 3.39997,2.76 3.4,4.92 -3e-5,3.97333 -1.49336,6.50666 -4.48,7.6"
         id="path3759"
         inkscape:connector-curvature="0"
         style="fill:#e7fad6;fill-opacity:1;stroke:#56634b;stroke-opacity:0.4977169" />
      <path
         d="m -414.81554,-116.60001 c -0.40003,4.82667 -1.93336,8.01333 -4.6,9.56 -1.78669,1.03999 -5.02669,1.55999 -9.72,1.56 -3.97335,-1e-5 -6.77334,-0.34667 -8.4,-1.04 -2.74667,-1.17334 -4.12,-3.62667 -4.12,-7.36 0,-0.66666 0.0133,-1.17333 0.04,-1.52 0.10666,-1.33333 0.26666,-2.15999 0.48,-2.48 0.31999,-0.50666 1.02666,-0.81333 2.12,-0.92 0.93333,-0.10666 1.55999,-0.30666 1.88,-0.6 0.34666,-0.29333 0.62666,-0.90666 0.84,-1.84 0.34666,-1.62666 1.45332,-3.10665 3.32,-4.44 1.78665,-1.30665 3.53332,-1.95998 5.24,-1.96 0.37331,2e-5 0.55998,2e-5 0.56,0 0.63998,-0.0266 0.94665,-0.04 0.92,-0.04 l 1.28,0 c 3.41331,2e-5 5.91997,0.60002 7.52,1.8 1.8133,1.41335 2.71997,3.77334 2.72,7.08 -3e-5,0.82667 -0.0267,1.56001 -0.08,2.2 m -4.48,0 c 0.08,-0.95999 0.11997,-1.69333 0.12,-2.2 -3e-5,-1.91999 -0.58669,-3.18666 -1.76,-3.8 -0.80002,-0.42666 -2.28002,-0.63999 -4.44,-0.64 -2.74668,1e-5 -4.58668,0.42668 -5.52,1.28 -0.90668,0.82668 -1.48001,2.61334 -1.72,5.36 -0.08,0.93334 -0.12001,1.68 -0.12,2.24 -10e-6,1.92 0.58665,3.18667 1.76,3.8 0.79998,0.42667 2.27998,0.64 4.44,0.64 2.74664,0 4.57331,-0.41333 5.48,-1.24 0.93331,-0.85333 1.51997,-2.66666 1.76,-5.44"
         id="path3761"
         inkscape:connector-curvature="0"
         style="fill:#e7fad6;fill-opacity:1;stroke:#56634b;stroke-opacity:0.4977169" />
      <path
         d="m -377.23117,-113.32001 c -0.16003,1.97333 -0.3467,4.02666 -0.56,6.16 -0.1067,1.11999 -0.89337,1.67999 -2.36,1.68 -0.5067,-1e-5 -0.97336,-0.13334 -1.4,-0.4 -0.5067,-0.29334 -0.73336,-0.68 -0.68,-1.16 l 1.12,-12.72 c 0.0533,-0.69332 -0.32003,-1.42666 -1.12,-2.2 -0.80003,-0.79999 -1.54669,-1.21332 -2.24,-1.24 -0.10669,1e-5 -0.22669,-0.0133 -0.36,-0.04 l -0.44,0 c -0.93336,1e-5 -1.85336,0.29334 -2.76,0.88 -0.90669,0.58668 -1.48002,1.30668 -1.72,2.16 -0.08,0.0267 -0.17336,0.16001 -0.28,0.4 l -1.08,12.8 c -0.0267,0.42666 -0.33335,0.79999 -0.92,1.12 -0.48002,0.26666 -0.96002,0.39999 -1.44,0.4 -0.53335,-1e-5 -1.00002,-0.12001 -1.4,-0.36 -0.50668,-0.29334 -0.73335,-0.69334 -0.68,-1.2 l 1.08,-12.72 c 0.0533,-0.66666 -0.33335,-1.39999 -1.16,-2.2 -0.82668,-0.82666 -1.54668,-1.23999 -2.16,-1.24 l -0.4,0 c -0.26668,-0.0266 -0.50668,-0.04 -0.72,-0.04 l -1,0 c -1.36001,1e-5 -1.92001,-0.0133 -1.68,-0.04 -0.96001,0.08 -1.46668,0.40001 -1.52,0.96 l -1.36,15.32 c -0.08,0.82666 -0.78667,1.31999 -2.12,1.48 -0.21334,0.0267 -1.02667,0.04 -2.44,0.04 -1.92,-1e-5 -2.98667,-0.04 -3.2,-0.12 -0.66667,-0.24001 -1,-1.04 -1,-2.4 0,-0.21334 0.10667,-1.58667 0.32,-4.12 0.16,-1.92 0.26667,-2.98666 0.32,-3.2 0.16,-1.51999 0.29333,-2.37333 0.4,-2.56 0.18667,-0.34666 0.85333,-0.61333 2,-0.8 0.85333,-0.13333 1.45333,-0.33333 1.8,-0.6 0.37333,-0.29333 0.58666,-0.82666 0.64,-1.6 0.08,-0.95999 0.17333,-1.58666 0.28,-1.88 0.87999,-2.15999 2.03999,-3.58665 3.48,-4.28 0.90666,-0.42665 2.29332,-0.63998 4.16,-0.64 1.97332,2e-5 3.43998,0.14668 4.4,0.44 1.30665,0.40002 2.49331,1.18668 3.56,2.36 2.15998,-1.86665 4.49331,-2.79998 7,-2.8 1.11997,2e-5 2.4533,0.33335 4,1 2.6933,1.17335 4.03996,3.72001 4.04,7.64 -4e-5,0.24001 -0.13337,2.14667 -0.4,5.72"
         id="path3763"
         inkscape:connector-curvature="0"
         style="fill:#e7fad6;fill-opacity:1;stroke:#56634b;stroke-opacity:0.4977169" />
      <path
         d="m -352.14429,-117.60001 c -0.18669,2.16 -0.81336,3.24 -1.88,3.24 l -11.64,0 c -0.08,0.0533 -0.13335,0.22667 -0.16,0.52 -0.08,0.8 0.25332,1.65333 1,2.56 0.74665,0.90667 1.51998,1.36 2.32,1.36 l 6.64,0 c 0.47998,0 0.85331,0.26666 1.12,0.8 0.21331,0.42666 0.29331,0.90666 0.24,1.44 -0.10669,1.38666 -0.68002,2.10666 -1.72,2.16 -0.48002,0.0267 -2.29335,0.04 -5.44,0.04 -4.56001,-1e-5 -7.70668,-0.42667 -9.44,-1.28 -2.37334,-1.17334 -3.56,-3.48 -3.56,-6.92 0,-0.56 0.0267,-1.13333 0.08,-1.72 0.10666,-1.11999 0.22666,-1.85333 0.36,-2.2 0.29333,-0.74666 0.85333,-1.11999 1.68,-1.12 1.22666,1e-5 2.02666,-0.15999 2.4,-0.48 0.26666,-0.23999 0.62666,-0.97332 1.08,-2.2 0.15999,-0.47999 0.45332,-1.18666 0.88,-2.12 0.63999,-1.17332 1.81332,-2.17332 3.52,-3 1.57332,-0.77332 3.07998,-1.15998 4.52,-1.16 2.61331,2e-5 4.62664,0.82668 6.04,2.48 1.33331,1.54668 1.99997,3.65334 2,6.32 -3e-5,0.53334 -0.0134,0.96001 -0.04,1.28 m -4.36,-1.24 0.08,-0.8 c 0.0266,-0.26666 -0.10669,-0.69332 -0.4,-1.28 -0.26669,-0.58666 -0.50669,-0.98666 -0.72,-1.2 -0.40002,-0.39999 -1.08002,-0.75999 -2.04,-1.08 -0.08,-0.0266 -0.40002,-0.04 -0.96,-0.04 -1.12002,1e-5 -2.17335,0.41334 -3.16,1.24 -0.98668,0.82668 -1.52001,1.62668 -1.6,2.4 l -0.08,0.76 8.88,0"
         id="path3765"
         inkscape:connector-curvature="0"
         style="fill:#e7fad6;fill-opacity:1;stroke:#56634b;stroke-opacity:0.4977169" />
      <path
         d="m -314.31054,-104.68001 c -0.0534,0.63999 -0.42669,1.62666 -1.12,2.96 -1.22669,2.373321 -3.13336,3.906653 -5.72,4.599997 -1.20002,0.319988 -3.25335,0.479988 -6.16,0.48 -0.29335,-1.2e-5 -0.73335,0.01332 -1.32,0.04 -0.56001,0.02666 -0.98668,0.03999 -1.28,0.04 -0.96001,-1.2e-5 -1.64001,-0.133345 -2.04,-0.4 -0.50667,-0.346678 -0.72001,-0.973344 -0.64,-1.88 0.08,-0.853342 0.33333,-1.440007 0.76,-1.759997 0.45332,-0.32001 1.13332,-0.49334 2.04,-0.52 -10e-6,-1e-5 0.87999,-1e-5 2.64,0 0.69332,-1e-5 1.50665,-0.41334 2.44,-1.24 0.95998,-0.80001 1.46665,-1.53334 1.52,-2.2 l 0.08,-0.96 -4.96,0 c -1.09334,-1e-5 -2.26668,-0.33334 -3.52,-1 -2.69334,-1.44 -4.04,-3.86667 -4.04,-7.28 0,-0.64 0.0533,-1.58666 0.16,-2.84 0.39999,-4.66666 1.71999,-7.75999 3.96,-9.28 1.78666,-1.19998 5.03999,-1.79998 9.76,-1.8 2.71998,2e-5 4.41331,0.0667 5.08,0.2 0.90664,0.18668 1.81331,0.80002 2.72,1.84 0.90664,1.01335 1.31997,1.97335 1.24,2.88 l -1.6,18.12 m -2.96,-16.68 c 0.08,-0.87999 -0.20002,-1.46666 -0.84,-1.76 -0.42669,-0.21332 -1.12002,-0.30665 -2.08,-0.28 l -1.64,0.08 c -0.85335,0.0267 -1.06668,0.04 -0.64,0.04 -2.42668,1e-5 -3.98668,0.08 -4.68,0.24 -1.86668,0.42668 -3.05334,1.49334 -3.56,3.2 -0.0533,0.16001 -0.16001,1.22667 -0.32,3.2 -0.0267,0.24001 -0.0533,0.62667 -0.08,1.16 l -0.16,2.04 c -0.0533,0.66667 0.31999,1.41333 1.12,2.24 0.79999,0.82667 1.53332,1.24 2.2,1.24 l 5.2,0 0.64,-7.36 c 0.08,-0.79999 0.66665,-1.29333 1.76,-1.48 1.41331,-0.23999 2.19998,-0.42666 2.36,-0.56 0.39998,-0.31999 0.63998,-0.98666 0.72,-2"
         id="path3767"
         inkscape:connector-curvature="0"
         style="fill:#e7fad6;fill-opacity:1;stroke:#56634b;stroke-opacity:0.4977169" />
      <path
         d="m -289.34304,-112.12001 c -0.13336,1.65333 -0.22669,2.86666 -0.28,3.64 -0.34669,2 -0.97336,2.99999 -1.88,3 l -15.52,0 c -0.26667,-1e-5 -0.66667,-0.13334 -1.2,-0.4 -2.26667,-1.12 -3.4,-2.77334 -3.4,-4.96 0,-0.53333 0.0133,-0.96 0.04,-1.28 0.26666,-3.22666 1.74666,-5.31999 4.44,-6.28 0.74666,-0.26666 1.17332,-0.39999 1.28,-0.4 l 8.08,0 c 0.10665,-0.37333 0.19998,-0.97332 0.28,-1.8 0.0533,-0.58666 0.08,-0.97332 0.08,-1.16 -2e-5,-0.98666 -0.28002,-1.47999 -0.84,-1.48 l -6.32,0 c -1.04001,1e-5 -1.50668,-0.74665 -1.4,-2.24 0.10666,-1.51998 1.10666,-2.27998 3,-2.28 0.23999,2e-5 0.58665,0.0133 1.04,0.04 0.47999,0.0267 0.83999,0.04 1.08,0.04 2.05332,2e-5 3.29332,0.04 3.72,0.12 1.09331,0.21335 2.05331,0.80002 2.88,1.76 0.82664,0.93335 1.26664,1.96001 1.32,3.08 0.0266,0.16001 -0.0267,0.48001 -0.16,0.96 -0.10669,0.45334 -0.16002,0.76001 -0.16,0.92 -2e-5,0.80001 0.27998,1.36001 0.84,1.68 0.23998,0.13334 0.78664,0.26667 1.64,0.4 0.77331,0.10667 1.25331,0.28001 1.44,0.52 0.21331,0.21334 0.31997,0.84001 0.32,1.88 -3e-5,0.4 -0.10669,1.81334 -0.32,4.24 m -9.12,2.2 0.4,-4.44 -7.6,0 c -0.85334,0 -1.34668,0.74667 -1.48,2.24 -0.13334,1.46667 0.13332,2.2 0.8,2.2 l 7.88,0"
         id="path3769"
         inkscape:connector-curvature="0"
         style="fill:#e7fad6;fill-opacity:1;stroke:#56634b;stroke-opacity:0.4977169" />
      <path
         d="m -251.37179,-113.32001 c -0.16004,1.97333 -0.34671,4.02666 -0.56,6.16 -0.10671,1.11999 -0.89337,1.67999 -2.36,1.68 -0.5067,-1e-5 -0.97337,-0.13334 -1.4,-0.4 -0.5067,-0.29334 -0.73337,-0.68 -0.68,-1.16 l 1.12,-12.72 c 0.0533,-0.69332 -0.32004,-1.42666 -1.12,-2.2 -0.80003,-0.79999 -1.5467,-1.21332 -2.24,-1.24 -0.1067,1e-5 -0.2267,-0.0133 -0.36,-0.04 l -0.44,0 c -0.93336,1e-5 -1.85336,0.29334 -2.76,0.88 -0.90669,0.58668 -1.48003,1.30668 -1.72,2.16 -0.08,0.0267 -0.17336,0.16001 -0.28,0.4 l -1.08,12.8 c -0.0267,0.42666 -0.33336,0.79999 -0.92,1.12 -0.48002,0.26666 -0.96002,0.39999 -1.44,0.4 -0.53336,-1e-5 -1.00002,-0.12001 -1.4,-0.36 -0.50669,-0.29334 -0.73335,-0.69334 -0.68,-1.2 l 1.08,-12.72 c 0.0533,-0.66666 -0.33336,-1.39999 -1.16,-2.2 -0.82669,-0.82666 -1.54669,-1.23999 -2.16,-1.24 l -0.4,0 c -0.26669,-0.0266 -0.50668,-0.04 -0.72,-0.04 l -1,0 c -1.36002,1e-5 -1.92002,-0.0133 -1.68,-0.04 -0.96001,0.08 -1.46668,0.40001 -1.52,0.96 l -1.36,15.32 c -0.08,0.82666 -0.78668,1.31999 -2.12,1.48 -0.21334,0.0267 -1.02668,0.04 -2.44,0.04 -1.92001,-1e-5 -2.98667,-0.04 -3.2,-0.12 -0.66667,-0.24001 -1,-1.04 -1,-2.4 0,-0.21334 0.10666,-1.58667 0.32,-4.12 0.16,-1.92 0.26666,-2.98666 0.32,-3.2 0.16,-1.51999 0.29333,-2.37333 0.4,-2.56 0.18666,-0.34666 0.85333,-0.61333 2,-0.8 0.85333,-0.13333 1.45333,-0.33333 1.8,-0.6 0.37332,-0.29333 0.58666,-0.82666 0.64,-1.6 0.08,-0.95999 0.17332,-1.58666 0.28,-1.88 0.87999,-2.15999 2.03999,-3.58665 3.48,-4.28 0.90665,-0.42665 2.29332,-0.63998 4.16,-0.64 1.97331,2e-5 3.43998,0.14668 4.4,0.44 1.30664,0.40002 2.49331,1.18668 3.56,2.36 2.15997,-1.86665 4.4933,-2.79998 7,-2.8 1.11997,2e-5 2.4533,0.33335 4,1 2.69329,1.17335 4.03996,3.72001 4.04,7.64 -4e-5,0.24001 -0.13337,2.14667 -0.4,5.72"
         id="path3771"
         inkscape:connector-curvature="0"
         style="fill:#e7fad6;fill-opacity:1;stroke:#56634b;stroke-opacity:0.4977169" />
      <path
         d="m -226.28492,-117.60001 c -0.18669,2.16 -0.81335,3.24 -1.88,3.24 l -11.64,0 c -0.08,0.0533 -0.13334,0.22667 -0.16,0.52 -0.08,0.8 0.25333,1.65333 1,2.56 0.74666,0.90667 1.51999,1.36 2.32,1.36 l 6.64,0 c 0.47998,0 0.85331,0.26666 1.12,0.8 0.21331,0.42666 0.29331,0.90666 0.24,1.44 -0.10669,1.38666 -0.68002,2.10666 -1.72,2.16 -0.48002,0.0267 -2.29335,0.04 -5.44,0.04 -4.56001,-1e-5 -7.70667,-0.42667 -9.44,-1.28 -2.37333,-1.17334 -3.56,-3.48 -3.56,-6.92 0,-0.56 0.0267,-1.13333 0.08,-1.72 0.10667,-1.11999 0.22667,-1.85333 0.36,-2.2 0.29333,-0.74666 0.85333,-1.11999 1.68,-1.12 1.22666,1e-5 2.02666,-0.15999 2.4,-0.48 0.26666,-0.23999 0.62666,-0.97332 1.08,-2.2 0.16,-0.47999 0.45333,-1.18666 0.88,-2.12 0.63999,-1.17332 1.81333,-2.17332 3.52,-3 1.57332,-0.77332 3.07999,-1.15998 4.52,-1.16 2.61332,2e-5 4.62665,0.82668 6.04,2.48 1.33331,1.54668 1.99998,3.65334 2,6.32 -2e-5,0.53334 -0.0134,0.96001 -0.04,1.28 m -4.36,-1.24 0.08,-0.8 c 0.0266,-0.26666 -0.10668,-0.69332 -0.4,-1.28 -0.26668,-0.58666 -0.50668,-0.98666 -0.72,-1.2 -0.40002,-0.39999 -1.08002,-0.75999 -2.04,-1.08 -0.08,-0.0266 -0.40001,-0.04 -0.96,-0.04 -1.12001,1e-5 -2.17334,0.41334 -3.16,1.24 -0.98668,0.82668 -1.52001,1.62668 -1.6,2.4 l -0.08,0.76 8.88,0"
         id="path3773"
         inkscape:connector-curvature="0"
         style="fill:#e7fad6;fill-opacity:1;stroke:#56634b;stroke-opacity:0.4977169" />
      <path
         d="m -207.22054,-105.88001 c -0.72002,0.26666 -1.14669,0.39999 -1.28,0.4 l -14.04,0 c -0.50667,-1e-5 -0.88001,-0.25334 -1.12,-0.76 -0.21334,-0.42667 -0.29334,-0.90667 -0.24,-1.44 0.0533,-0.53334 0.22666,-1.01334 0.52,-1.44 0.34666,-0.53334 0.75999,-0.8 1.24,-0.8 l 9.28,0 c 0.69332,0 1.09332,-0.73333 1.2,-2.2 0.13332,-1.49333 -0.13335,-2.24 -0.8,-2.24 l -7.24,0 c -0.26668,0 -0.66668,-0.13333 -1.2,-0.4 -2.26667,-1.12 -3.4,-2.77333 -3.4,-4.96 0,-0.21332 0.0267,-0.65332 0.08,-1.32 0.13333,-1.73332 0.73333,-3.23999 1.8,-4.52 1.14666,-1.41332 2.54666,-2.11998 4.2,-2.12 l 13.44,0 c 1.25331,2e-5 1.81331,0.73335 1.68,2.2 -0.0534,0.50668 -0.22669,0.98668 -0.52,1.44 -0.34669,0.53335 -0.76002,0.80001 -1.24,0.8 l -13.76,0 c -0.64001,1e-5 -1.02668,0.73334 -1.16,2.2 -0.13334,1.49334 0.11999,2.24001 0.76,2.24 l 11.68,0 c 0.26664,1e-5 0.66664,0.13334 1.2,0.4 2.26664,1.12001 3.39997,2.76 3.4,4.92 -3e-5,3.97333 -1.49336,6.50666 -4.48,7.6"
         id="path3775"
         inkscape:connector-curvature="0"
         style="fill:#e7fad6;fill-opacity:1;stroke:#56634b;stroke-opacity:0.4977169" />
    </g>
  </g>
</svg>
